{
    "asset": {
        "generator": "COLLADA2GLTF",
        "version": "2.0"
    },
    "scene": 0,
    "scenes": [
        {
            "nodes": [
                0
            ]
        }
    ],
    "nodes": [
        {
            "children": [
                1
            ],
            "matrix": [
                0.02539999969303608,
                0.0,
                0.0,
                0.0,
                0.0,
                0.0,
                -0.02539999969303608,
                0.0,
                0.0,
                0.02539999969303608,
                0.0,
                0.0,
                0.0,
                0.0,
                0.0,
                1.0
            ]
        },
        {
            "children": [
                3,
                2
            ]
        },
        {
            "mesh": 0,
            "matrix": [
                10.107870101928713,
                -0.4413191974163056,
                0.0,
                0.0,
                0.4413191974163056,
                10.107870101928713,
                0.0,
                0.0,
                0.0,
                0.0,
                10.117500305175782,
                0.0,
                -8847.8779296875,
                12572.6240234375,
                0.0,
                1.0
            ]
        },
        {
            "mesh": 1,
            "children": [
                6,
                5,
                4
            ],
            "matrix": [
                17.890932083129884,
                0.7811349034309387,
                0.0,
                0.0,
                -0.7811349034309387,
                17.890932083129884,
                0.0,
                0.0,
                0.0,
                0.0,
                17.907974243164064,
                0.0,
                -8648.662109375,
                3367.310546875,
                42.22263717651367,
                1.0
            ]
        },
        {
            "mesh": 2
        },
        {
            "mesh": 3
        },
        {
            "mesh": 4
        }
    ],
    "meshes": [
        {
            "primitives": [
                {
                    "attributes": {
                        "NORMAL": 1,
                        "POSITION": 2
                    },
                    "indices": 0,
                    "mode": 4,
                    "material": 0
                }
            ],
            "name": "ID30"
        },
        {
            "primitives": [
                {
                    "attributes": {
                        "NORMAL": 4,
                        "POSITION": 5
                    },
                    "indices": 3,
                    "mode": 4,
                    "material": 1
                }
            ],
            "name": "ID3"
        },
        {
            "primitives": [
                {
                    "attributes": {
                        "NORMAL": 7,
                        "POSITION": 8
                    },
                    "indices": 6,
                    "mode": 4,
                    "material": 2
                }
            ],
            "name": "ID23"
        },
        {
            "primitives": [
                {
                    "attributes": {
                        "NORMAL": 10,
                        "POSITION": 11
                    },
                    "indices": 9,
                    "mode": 4,
                    "material": 3
                }
            ],
            "name": "ID17"
        },
        {
            "primitives": [
                {
                    "attributes": {
                        "NORMAL": 13,
                        "POSITION": 14
                    },
                    "indices": 12,
                    "mode": 4,
                    "material": 4
                }
            ],
            "name": "ID11"
        }
    ],
    "accessors": [
        {
            "bufferView": 0,
            "byteOffset": 0,
            "componentType": 5123,
            "count": 66,
            "max": [
                25
            ],
            "min": [
                0
            ],
            "type": "SCALAR"
        },
        {
            "bufferView": 1,
            "byteOffset": 0,
            "componentType": 5126,
            "count": 26,
            "max": [
                -0.0,
                0.0,
                1.0
            ],
            "min": [
                -0.0,
                0.0,
                -1.0
            ],
            "type": "VEC3"
        },
        {
            "bufferView": 1,
            "byteOffset": 312,
            "componentType": 5126,
            "count": 26,
            "max": [
                1663.49951171875,
                608.297119140625,
                0.0
            ],
            "min": [
                0.0,
                -865.5095825195313,
                0.0
            ],
            "type": "VEC3"
        },
        {
            "bufferView": 0,
            "byteOffset": 132,
            "componentType": 5123,
            "count": 330,
            "max": [
                179
            ],
            "min": [
                0
            ],
            "type": "SCALAR"
        },
        {
            "bufferView": 1,
            "byteOffset": 624,
            "componentType": 5126,
            "count": 180,
            "max": [
                1.0,
                1.0,
                1.0
            ],
            "min": [
                -1.0,
                -1.0,
                -1.0
            ],
            "type": "VEC3"
        },
        {
            "bufferView": 1,
            "byteOffset": 2784,
            "componentType": 5126,
            "count": 180,
            "max": [
                375.8267517089844,
                315.4330749511719,
                143.97637939453126
            ],
            "min": [
                0.0,
                12.59842586517334,
                0.0
            ],
            "type": "VEC3"
        },
        {
            "bufferView": 0,
            "byteOffset": 792,
            "componentType": 5123,
            "count": 330,
            "max": [
                179
            ],
            "min": [
                0
            ],
            "type": "SCALAR"
        },
        {
            "bufferView": 1,
            "byteOffset": 4944,
            "componentType": 5126,
            "count": 180,
            "max": [
                1.0,
                1.0,
                1.0
            ],
            "min": [
                -1.0,
                -1.0,
                -1.0
            ],
            "type": "VEC3"
        },
        {
            "bufferView": 1,
            "byteOffset": 7104,
            "componentType": 5126,
            "count": 180,
            "max": [
                917.4803466796876,
                794.048828125,
                143.97637939453126
            ],
            "min": [
                579.2362060546875,
                534.6564331054688,
                0.0
            ],
            "type": "VEC3"
        },
        {
            "bufferView": 0,
            "byteOffset": 1452,
            "componentType": 5123,
            "count": 330,
            "max": [
                179
            ],
            "min": [
                0
            ],
            "type": "SCALAR"
        },
        {
            "bufferView": 1,
            "byteOffset": 9264,
            "componentType": 5126,
            "count": 180,
            "max": [
                1.0,
                1.0,
                1.0
            ],
            "min": [
                -1.0,
                -1.0,
                -1.0
            ],
            "type": "VEC3"
        },
        {
            "bufferView": 1,
            "byteOffset": 11424,
            "componentType": 5126,
            "count": 180,
            "max": [
                375.8267517089844,
                794.048828125,
                143.97637939453126
            ],
            "min": [
                0.0,
                542.2115478515625,
                0.0
            ],
            "type": "VEC3"
        },
        {
            "bufferView": 0,
            "byteOffset": 2112,
            "componentType": 5123,
            "count": 330,
            "max": [
                179
            ],
            "min": [
                0
            ],
            "type": "SCALAR"
        },
        {
            "bufferView": 1,
            "byteOffset": 13584,
            "componentType": 5126,
            "count": 180,
            "max": [
                1.0,
                1.0,
                1.0
            ],
            "min": [
                -1.0,
                -1.0,
                -1.0
            ],
            "type": "VEC3"
        },
        {
            "bufferView": 1,
            "byteOffset": 15744,
            "componentType": 5126,
            "count": 180,
            "max": [
                910.1181030273438,
                312.646484375,
                128.13897705078126
            ],
            "min": [
                575.6322631835938,
                0.0,
                0.0
            ],
            "type": "VEC3"
        }
    ],
    "materials": [
        {
            "pbrMetallicRoughness": {
                "baseColorFactor": [
                    1.0,
                    1.0,
                    1.0,
                    1.0
                ],
                "metallicFactor": 0.0
            },
            "name": "ID32"
        },
        {
            "pbrMetallicRoughness": {
                "baseColorFactor": [
                    1.0,
                    1.0,
                    1.0,
                    1.0
                ],
                "metallicFactor": 0.0
            },
            "name": "ID5"
        },
        {
            "pbrMetallicRoughness": {
                "baseColorFactor": [
                    1.0,
                    1.0,
                    1.0,
                    1.0
                ],
                "metallicFactor": 0.0
            },
            "name": "ID5"
        },
        {
            "pbrMetallicRoughness": {
                "baseColorFactor": [
                    1.0,
                    1.0,
                    1.0,
                    1.0
                ],
                "metallicFactor": 0.0
            },
            "name": "ID5"
        },
        {
            "pbrMetallicRoughness": {
                "baseColorFactor": [
                    1.0,
                    1.0,
                    1.0,
                    1.0
                ],
                "metallicFactor": 0.0
            },
            "name": "ID5"
        }
    ],
    "bufferViews": [
        {
            "buffer": 0,
            "byteOffset": 17904,
            "byteLength": 2772,
            "target": 34963
        },
        {
            "buffer": 0,
            "byteOffset": 0,
            "byteLength": 17904,
            "byteStride": 12,
            "target": 34962
        }
    ],
    "buffers": [
        {
            "byteLength": 20676,
            "uri": "data:application/octet-stream;base64,"
        }
    ]
}
